<?xml version="1.0" encoding="UTF-8"?>
<svg version="1.1" xmlns="http://www.w3.org/2000/svg" width="153" height="180">
<path d="M0 0 C1.42022461 -0.04350586 1.42022461 -0.04350586 2.86914062 -0.08789062 C9.84959129 -0.15121642 13.41842752 1.20126689 18.640625 5.98828125 C19.34445313 6.79845703 19.34445313 6.79845703 20.0625 7.625 C20.54203125 8.15738281 21.0215625 8.68976562 21.515625 9.23828125 C24.91213422 14.67064991 25.10470901 20.52739827 25.07128906 26.73876953 C25.0747937 27.55106018 25.07829834 28.36335083 25.08190918 29.20025635 C25.09065869 31.86536389 25.08490255 34.53020261 25.078125 37.1953125 C25.07947334 39.05663097 25.08141528 40.91794909 25.08392334 42.77926636 C25.08686519 46.67107512 25.08260623 50.56279181 25.07324219 54.45458984 C25.06183232 59.43907029 25.06842278 64.42333569 25.08038712 69.4078083 C25.08761753 73.24768695 25.08531262 77.08751468 25.08013153 80.92739487 C25.07879913 82.76537985 25.08042839 84.60336948 25.08509064 86.44134903 C25.09017702 89.0093637 25.08241669 91.57703071 25.07128906 94.14501953 C25.07533752 94.90150787 25.07938599 95.65799622 25.08355713 96.43740845 C25.05097481 100.50205231 24.62184464 103.65356939 22.8125 107.3125 C3.55824815 107.99743386 3.55824815 107.99743386 -3.1796875 102.765625 C-7.8561225 98.38025442 -11.26680812 93.78922267 -11.55499268 87.18095398 C-11.56664333 85.58250689 -11.56194186 83.98388629 -11.54394531 82.38549805 C-11.54598969 81.50840683 -11.54803406 80.63131561 -11.55014038 79.72764587 C-11.55313666 76.84295469 -11.53471148 73.9588415 -11.515625 71.07421875 C-11.5125663 69.06736899 -11.51069102 67.06051711 -11.50994873 65.05366516 C-11.50535353 60.85657578 -11.49095304 56.65967911 -11.46875 52.46264648 C-11.44037704 47.07086545 -11.42952857 41.6792355 -11.4250679 36.28738689 C-11.42092215 32.14828468 -11.41111325 28.00921327 -11.39919281 23.87012672 C-11.39348014 21.88091085 -11.38872475 19.89169199 -11.38492584 17.90247154 C-11.37808872 15.1324371 -11.364471 12.36252502 -11.34863281 9.5925293 C-11.34751495 8.76398437 -11.34639709 7.93543945 -11.34524536 7.08178711 C-11.27863055 -1.66748658 -7.72478811 0.07729941 0 0 Z " fill="#EC4A5D" transform="translate(49.1875,37.6875)"/>
<path d="M0 0 C0.67863098 0.00187317 1.35726196 0.00374634 2.05645752 0.00567627 C3.48186197 0.01236754 4.90724898 0.02622358 6.33251953 0.046875 C8.52263296 0.07822532 10.71202745 0.08786864 12.90234375 0.09375 C23.60194884 0.16444884 23.60194884 0.16444884 24.765625 1.328125 C25.1045594 5.71582385 25.09081537 10.11652899 25.140625 14.515625 C25.19669922 16.36510742 25.19669922 16.36510742 25.25390625 18.25195312 C25.35307185 28.46050065 25.35307185 28.46050065 22.5546875 32.06640625 C17.7983102 35.92346851 14.03464165 36.5796731 7.96875 36.55859375 C6.68097656 36.55666016 5.39320312 36.55472656 4.06640625 36.55273438 C3.40205566 36.54653076 2.73770508 36.54032715 2.05322266 36.53393555 C0.00801271 36.51555659 -2.03674693 36.51342693 -4.08203125 36.51367188 C-14.09410888 36.46839112 -14.09410888 36.46839112 -15.234375 35.328125 C-15.51733628 31.29378312 -15.46628521 27.24619369 -15.484375 23.203125 C-15.505 22.07390625 -15.525625 20.9446875 -15.546875 19.78125 C-15.5759484 13.57407842 -15.56470569 8.6711338 -12.234375 3.328125 C-8.16902308 0.20467763 -5.05484739 -0.03730989 0 0 Z " fill="#E94A5F" transform="translate(95.234375,108.671875)"/>
<path d="M0 0 C1.42022461 -0.04350586 1.42022461 -0.04350586 2.86914062 -0.08789062 C9.84959129 -0.15121642 13.41842752 1.20126689 18.640625 5.98828125 C19.34445313 6.79845703 19.34445313 6.79845703 20.0625 7.625 C20.54203125 8.15738281 21.0215625 8.68976562 21.515625 9.23828125 C24.91213422 14.67064991 25.10470901 20.52739827 25.07128906 26.73876953 C25.0747937 27.55106018 25.07829834 28.36335083 25.08190918 29.20025635 C25.09065869 31.86536389 25.08490255 34.53020261 25.078125 37.1953125 C25.07947334 39.05663097 25.08141528 40.91794909 25.08392334 42.77926636 C25.08686519 46.67107512 25.08260623 50.56279181 25.07324219 54.45458984 C25.06183232 59.43907029 25.06842278 64.42333569 25.08038712 69.4078083 C25.08761753 73.24768695 25.08531262 77.08751468 25.08013153 80.92739487 C25.07879913 82.76537985 25.08042839 84.60336948 25.08509064 86.44134903 C25.09017702 89.0093637 25.08241669 91.57703071 25.07128906 94.14501953 C25.07533752 94.90150787 25.07938599 95.65799622 25.08355713 96.43740845 C25.05097481 100.50205231 24.62184464 103.65356939 22.8125 107.3125 C3.55824815 107.99743386 3.55824815 107.99743386 -3.1796875 102.765625 C-7.8561225 98.38025442 -11.26680812 93.78922267 -11.55499268 87.18095398 C-11.56664333 85.58250689 -11.56194186 83.98388629 -11.54394531 82.38549805 C-11.54598969 81.50840683 -11.54803406 80.63131561 -11.55014038 79.72764587 C-11.55313666 76.84295469 -11.53471148 73.9588415 -11.515625 71.07421875 C-11.5125663 69.06736899 -11.51069102 67.06051711 -11.50994873 65.05366516 C-11.50535353 60.85657578 -11.49095304 56.65967911 -11.46875 52.46264648 C-11.44037704 47.07086545 -11.42952857 41.6792355 -11.4250679 36.28738689 C-11.42092215 32.14828468 -11.41111325 28.00921327 -11.39919281 23.87012672 C-11.39348014 21.88091085 -11.38872475 19.89169199 -11.38492584 17.90247154 C-11.37808872 15.1324371 -11.364471 12.36252502 -11.34863281 9.5925293 C-11.34751495 8.76398437 -11.34639709 7.93543945 -11.34524536 7.08178711 C-11.27863055 -1.66748658 -7.72478811 0.07729941 0 0 Z M-9.1875 3.3125 C-9.28676318 5.17428697 -9.31549428 7.03986614 -9.31689453 8.90429688 C-9.32004669 10.10485718 -9.32319885 11.30541748 -9.32644653 12.5423584 C-9.3244223 13.85869263 -9.32239807 15.17502686 -9.3203125 16.53125 C-9.32098726 17.90482602 -9.32195871 19.27840192 -9.32321167 20.65197754 C-9.32469241 23.55412922 -9.32252999 26.4562503 -9.31787109 29.35839844 C-9.31229996 32.99893752 -9.31546721 36.63940153 -9.32130814 40.27993774 C-9.34012764 54.07880115 -9.27320504 67.86531114 -8.7421875 81.65625 C-8.68407394 83.20088928 -8.68407394 83.20088928 -8.62478638 84.7767334 C-8.50098267 90.64439597 -8.50098267 90.64439597 -7.1875 96.3125 C-3.59099908 97.91094485 -1.15352757 98.3125 2.8125 98.3125 C2.8125 98.9725 2.8125 99.6325 2.8125 100.3125 C3.8025 100.6425 4.7925 100.9725 5.8125 101.3125 C6.1425 101.9725 6.4725 102.6325 6.8125 103.3125 C9.02622629 103.89721284 9.02622629 103.89721284 11.625 104.125 C12.49769531 104.23457031 13.37039062 104.34414062 14.26953125 104.45703125 C17.34739662 104.28209881 18.55885398 103.34550934 20.8125 101.3125 C21.4725 102.6325 22.1325 103.9525 22.8125 105.3125 C22.85883736 93.66432793 22.89437638 82.01617778 22.91612434 70.36793232 C22.92656218 64.95920367 22.94072149 59.55053807 22.96337891 54.1418457 C22.98510712 48.9223131 22.99706863 43.70284117 23.00225449 38.48326683 C23.00595027 36.49176262 23.01316715 34.50026173 23.02396011 32.50878334 C23.03847464 29.7197311 23.04047794 26.93092963 23.03955078 24.1418457 C23.04674133 23.31825562 23.05393188 22.49466553 23.06134033 21.64611816 C23.04632172 17.47185254 22.94376467 14.03225978 20.8125 10.3125 C17.79553591 8.46975024 17.79553591 8.46975024 14.8125 7.3125 C14.8125 6.3225 14.8125 5.3325 14.8125 4.3125 C13.8225 4.3125 12.8325 4.3125 11.8125 4.3125 C11.8125 3.6525 11.8125 2.9925 11.8125 2.3125 C8.50001813 2.28361854 5.18756833 2.26574201 1.875 2.25 C0.45670898 2.23743164 0.45670898 2.23743164 -0.99023438 2.22460938 C-1.88935547 2.22138672 -2.78847656 2.21816406 -3.71484375 2.21484375 C-4.54749756 2.20960693 -5.38015137 2.20437012 -6.23803711 2.19897461 C-8.19266798 2.09606708 -8.19266798 2.09606708 -9.1875 3.3125 Z " fill="#E29A9F" transform="translate(49.1875,37.6875)"/>
<path d="M0 0 C0.67863098 0.00187317 1.35726196 0.00374634 2.05645752 0.00567627 C3.48186197 0.01236754 4.90724898 0.02622358 6.33251953 0.046875 C8.52263296 0.07822532 10.71202745 0.08786864 12.90234375 0.09375 C23.60194884 0.16444884 23.60194884 0.16444884 24.765625 1.328125 C25.1045594 5.71582385 25.09081537 10.11652899 25.140625 14.515625 C25.19669922 16.36510742 25.19669922 16.36510742 25.25390625 18.25195312 C25.35307185 28.46050065 25.35307185 28.46050065 22.5546875 32.06640625 C17.7983102 35.92346851 14.03464165 36.5796731 7.96875 36.55859375 C6.68097656 36.55666016 5.39320312 36.55472656 4.06640625 36.55273438 C3.40205566 36.54653076 2.73770508 36.54032715 2.05322266 36.53393555 C0.00801271 36.51555659 -2.03674693 36.51342693 -4.08203125 36.51367188 C-14.09410888 36.46839112 -14.09410888 36.46839112 -15.234375 35.328125 C-15.51733628 31.29378312 -15.46628521 27.24619369 -15.484375 23.203125 C-15.505 22.07390625 -15.525625 20.9446875 -15.546875 19.78125 C-15.5759484 13.57407842 -15.56470569 8.6711338 -12.234375 3.328125 C-8.16902308 0.20467763 -5.05484739 -0.03730989 0 0 Z M-10.89135742 4.47729492 C-13.74399356 7.94819543 -13.82384189 9.50947528 -13.72265625 13.94140625 C-13.70654297 15.18857422 -13.69042969 16.43574219 -13.67382812 17.72070312 C-13.63193359 19.01427734 -13.59003906 20.30785156 -13.546875 21.640625 C-13.52431641 22.95353516 -13.50175781 24.26644531 -13.47851562 25.61914062 C-13.41965225 28.8566263 -13.33746304 32.091795 -13.234375 35.328125 C-9.19284585 35.41559428 -5.15156195 35.46867482 -1.109375 35.515625 C0.03273438 35.54076172 1.17484375 35.56589844 2.3515625 35.59179688 C10.50268937 35.74276362 10.50268937 35.74276362 17.765625 32.328125 C18.095625 31.668125 18.425625 31.008125 18.765625 30.328125 C19.425625 30.328125 20.085625 30.328125 20.765625 30.328125 C20.765625 29.668125 20.765625 29.008125 20.765625 28.328125 C21.755625 27.998125 22.745625 27.668125 23.765625 27.328125 C23.765625 18.748125 23.765625 10.168125 23.765625 1.328125 C19.69046599 1.30515917 15.61547207 1.2852487 11.5402832 1.27319336 C10.15420775 1.26816723 8.76813759 1.26134534 7.38208008 1.25268555 C5.38885785 1.24054482 3.39559681 1.23541479 1.40234375 1.23046875 C0.20311279 1.22523193 -0.99611816 1.21999512 -2.23168945 1.21459961 C-6.13562163 1.36219929 -7.83945474 2.00868339 -10.89135742 4.47729492 Z " fill="#ECCDCE" transform="translate(95.234375,108.671875)"/>
<path d="M0 0 C0.97775391 -0.05414063 1.95550781 -0.10828125 2.96289062 -0.1640625 C9.72679702 -0.29091406 13.18507631 1.01072944 18.08959961 5.69335938 C19.4375 7.5 19.4375 7.5 19.4375 10.5 C16.7975 9.51 14.1575 8.52 11.4375 7.5 C12.0975 7.17 12.7575 6.84 13.4375 6.5 C13.4375 5.51 13.4375 4.52 13.4375 3.5 C12.4475 3.5 11.4575 3.5 10.4375 3.5 C10.4375 2.84 10.4375 2.18 10.4375 1.5 C3.8375 1.83 -2.7625 2.16 -9.5625 2.5 C-9.8925 10.42 -10.2225 18.34 -10.5625 26.5 C-10.8925 26.5 -11.2225 26.5 -11.5625 26.5 C-11.59136751 22.35418113 -11.60925327 18.20838784 -11.625 14.0625 C-11.63337891 12.87849609 -11.64175781 11.69449219 -11.65039062 10.47460938 C-11.65361328 9.34990234 -11.65683594 8.22519531 -11.66015625 7.06640625 C-11.66539307 6.02427979 -11.67062988 4.98215332 -11.67602539 3.90844727 C-11.41156941 -1.70200064 -4.37717943 0.10107663 0 0 Z " fill="#CA516D" transform="translate(50.5625,38.5)"/>
<path d="M0 0 C0.33 0 0.66 0 1 0 C1.14564235 4.37464796 1.23419143 8.7486696 1.3125 13.125 C1.3753418 14.98125 1.3753418 14.98125 1.43945312 16.875 C1.57759246 27.15256634 1.57759246 27.15256634 -1.39453125 30.8046875 C-5.2029224 34.01355681 -7.08245283 34.1069032 -12 34 C-10.6875 32.5 -10.6875 32.5 -9 31 C-8.01 31 -7.02 31 -6 31 C-5.67 29.68 -5.34 28.36 -5 27 C-5 27.66 -5 28.32 -5 29 C-4.34 29 -3.68 29 -3 29 C-3 28.34 -3 27.68 -3 27 C-2.34 26.67 -1.68 26.34 -1 26 C-0.67 17.42 -0.34 8.84 0 0 Z " fill="#E695A2" transform="translate(119,110)"/>
<path d="M0 0 C3.52038401 0.43106743 6.7979019 0.93659668 10.1875 2 C15.41318743 3.37067211 20.62136529 3.66438733 26 4 C26 4.66 26 5.32 26 6 C8.26091954 6.63103448 8.26091954 6.63103448 2 3 C1.34 2.01 0.68 1.02 0 0 Z " fill="#DF9F9B" transform="translate(46,139)"/>
<path d="M0 0 C1.02787125 0.00212242 1.02787125 0.00212242 2.07650757 0.00428772 C4.26719511 0.0098895 6.4577808 0.02244219 8.6484375 0.03515625 C10.13281102 0.04017103 11.61718615 0.04473397 13.1015625 0.04882812 C16.74222065 0.05985948 20.38281914 0.07712526 24.0234375 0.09765625 C24.0234375 0.42765625 24.0234375 0.75765625 24.0234375 1.09765625 C8.1834375 1.59265625 8.1834375 1.59265625 -7.9765625 2.09765625 C-8.6365625 3.41765625 -9.2965625 4.73765625 -9.9765625 6.09765625 C-10.9665625 6.42765625 -11.9565625 6.75765625 -12.9765625 7.09765625 C-13.3065625 7.75765625 -13.6365625 8.41765625 -13.9765625 9.09765625 C-13.4334259 5.29570003 -11.81990687 3.59635282 -8.9765625 1.09765625 C-6.00296801 -0.389141 -3.31357071 -0.0134698 0 0 Z " fill="#F3C2CB" transform="translate(94.9765625,108.90234375)"/>
<path d="M0 0 C0.83265381 0.00523682 1.66530762 0.01047363 2.52319336 0.01586914 C3.42231445 0.0190918 4.32143555 0.02231445 5.24780273 0.02563477 C6.66609375 0.03820313 6.66609375 0.03820313 8.11303711 0.05102539 C9.06243164 0.05553711 10.01182617 0.06004883 10.98999023 0.06469727 C13.34356776 0.07652429 15.69702188 0.09300514 18.05053711 0.11352539 C18.05053711 0.77352539 18.05053711 1.43352539 18.05053711 2.11352539 C19.04053711 2.11352539 20.03053711 2.11352539 21.05053711 2.11352539 C21.05053711 3.10352539 21.05053711 4.09352539 21.05053711 5.11352539 C16.17553711 3.23852539 16.17553711 3.23852539 15.05053711 2.11352539 C12.35398857 2.04032918 9.68362253 2.02110002 6.98803711 2.05102539 C5.85011719 2.05779297 5.85011719 2.05779297 4.68920898 2.06469727 C2.8096184 2.07651859 0.93006812 2.09445461 -0.94946289 2.11352539 C-1.27946289 6.73352539 -1.60946289 11.35352539 -1.94946289 16.11352539 C-2.27946289 16.11352539 -2.60946289 16.11352539 -2.94946289 16.11352539 C-2.97631384 13.63428738 -2.99622837 11.15533699 -3.01196289 8.67602539 C-3.02453125 7.61544922 -3.02453125 7.61544922 -3.03735352 6.53344727 C-3.04599877 4.7265898 -3.00166301 2.91964936 -2.94946289 1.11352539 C-1.94946289 0.11352539 -1.94946289 0.11352539 0 0 Z " fill="#DF4265" transform="translate(42.949462890625,39.886474609375)"/>
<path d="M0 0 C1.65 0 3.3 0 5 0 C5.33 3.3 5.66 6.6 6 10 C4.35 10 2.7 10 1 10 C0.67 6.7 0.34 3.4 0 0 Z " fill="#EB5C59" transform="translate(41,124)"/>
<path d="M0 0 C0.33 0 0.66 0 1 0 C1.02505615 0.74161377 1.0501123 1.48322754 1.07592773 2.24731445 C1.19186132 5.60255328 1.31459985 8.95750944 1.4375 12.3125 C1.47681641 13.47974609 1.51613281 14.64699219 1.55664062 15.84960938 C1.59853516 16.96787109 1.64042969 18.08613281 1.68359375 19.23828125 C1.72025146 20.26993408 1.75690918 21.30158691 1.79467773 22.36450195 C1.90161242 25.10748258 1.90161242 25.10748258 3 28 C3.66 28.33 4.32 28.66 5 29 C4.67 29.99 4.34 30.98 4 32 C1.19457206 29.73818439 0.09012429 28.60024715 -0.45410156 24.97558594 C-0.4331543 23.82348633 -0.41220703 22.67138672 -0.390625 21.484375 C-0.37773438 20.23398438 -0.36484375 18.98359375 -0.3515625 17.6953125 C-0.31804688 16.39335938 -0.28453125 15.09140625 -0.25 13.75 C-0.23195312 12.43257812 -0.21390625 11.11515625 -0.1953125 9.7578125 C-0.14816271 6.50447692 -0.08236044 3.25260375 0 0 Z " fill="#E27473" transform="translate(40,105)"/>
<path d="M0 0 C0.33 0.33 0.66 0.66 1 1 C3.18292774 1.23481693 5.37203174 1.41363323 7.5625 1.5625 C8.76003906 1.64628906 9.95757812 1.73007813 11.19140625 1.81640625 C12.11824219 1.87699219 13.04507813 1.93757812 14 2 C14 2.33 14 2.66 14 3 C6.08 3 -1.84 3 -10 3 C-10.33 2.34 -10.66 1.68 -11 1 C-7.11651516 -0.29449495 -4.09302664 -0.13203312 0 0 Z " fill="#E25C5D" transform="translate(94,140)"/>
<path d="M0 0 C5.00918744 1.47329042 7.51807722 4.27515238 11 8 C10.67 8.66 10.34 9.32 10 10 C7.36 9.01 4.72 8.02 2 7 C2.66 6.67 3.32 6.34 4 6 C4 5.01 4 4.02 4 3 C3.01 3 2.02 3 1 3 C0.67 2.01 0.34 1.02 0 0 Z " fill="#E17A99" transform="translate(60,39)"/>
<path d="M0 0 C3.3 0 6.6 0 10 0 C10 0.66 10 1.32 10 2 C10.99 2 11.98 2 13 2 C13 2.99 13 3.98 13 5 C8.125 3.125 8.125 3.125 7 2 C4.67182036 1.63239269 2.3381615 1.29758419 0 1 C0 0.67 0 0.34 0 0 Z " fill="#DA3766" transform="translate(51,40)"/>
<path d="M0 0 C3.375 0.25 3.375 0.25 7 1 C8.4375 3.0625 8.4375 3.0625 9 5 C4.68607774 4.5206753 2.83430453 3.2542015 0 0 Z " fill="#E8ADAB" transform="translate(46,139)"/>
<path d="M0 0 C2.35953094 2.35953094 2.49141413 3.77895617 3 7 C1.68 7 0.36 7 -1 7 C-1.33 6.34 -1.66 5.68 -2 5 C-1.0625 2.375 -1.0625 2.375 0 0 Z " fill="#E43266" transform="translate(68,48)"/>
<path d="M0 0 C0.99 0 1.98 0 3 0 C2.1875 1.9375 2.1875 1.9375 1 4 C0.01 4.33 -0.98 4.66 -2 5 C-2.33 5.66 -2.66 6.32 -3 7 C-2.38722388 4.03824877 -1.74627478 2.61941217 0 0 Z " fill="#E6AEB3" transform="translate(84,111)"/>
<path d="" fill="#FFFFFF" transform="translate(0,0)"/>
<path d="" fill="#FFFFFF" transform="translate(0,0)"/>
<path d="" fill="#FFFFFF" transform="translate(0,0)"/>
<path d="" fill="#FFFFFF" transform="translate(0,0)"/>
<path d="" fill="#FFFFFF" transform="translate(0,0)"/>
<path d="" fill="#FFFFFF" transform="translate(0,0)"/>
<path d="" fill="#FFFFFF" transform="translate(0,0)"/>
<path d="" fill="#FFFFFF" transform="translate(0,0)"/>
<path d="" fill="#FFFFFF" transform="translate(0,0)"/>
<path d="" fill="#FFFFFF" transform="translate(0,0)"/>
<path d="" fill="#FFFFFF" transform="translate(0,0)"/>
<path d="" fill="#FFFFFF" transform="translate(0,0)"/>
<path d="" fill="#FFFFFF" transform="translate(0,0)"/>
<path d="" fill="#FFFFFF" transform="translate(0,0)"/>
<path d="" fill="#FFFFFF" transform="translate(0,0)"/>
<path d="" fill="#FFFFFF" transform="translate(0,0)"/>
<path d="" fill="#FFFFFF" transform="translate(0,0)"/>
<path d="" fill="#FFFFFF" transform="translate(0,0)"/>
<path d="" fill="#FFFFFF" transform="translate(0,0)"/>
<path d="" fill="#FFFFFF" transform="translate(0,0)"/>
<path d="" fill="#FFFFFF" transform="translate(0,0)"/>
<path d="" fill="#FFFFFF" transform="translate(0,0)"/>
<path d="" fill="#FFFFFF" transform="translate(0,0)"/>
<path d="" fill="#FFFFFF" transform="translate(0,0)"/>
<path d="" fill="#FFFFFF" transform="translate(0,0)"/>
<path d="" fill="#FFFFFF" transform="translate(0,0)"/>
<path d="" fill="#FFFFFF" transform="translate(0,0)"/>
<path d="" fill="#FFFFFF" transform="translate(0,0)"/>
<path d="" fill="#FFFFFF" transform="translate(0,0)"/>
<path d="" fill="#FFFFFF" transform="translate(0,0)"/>
<path d="" fill="#FFFFFF" transform="translate(0,0)"/>
<path d="" fill="#FFFFFF" transform="translate(0,0)"/>
<path d="" fill="#FFFFFF" transform="translate(0,0)"/>
<path d="" fill="#FFFFFF" transform="translate(0,0)"/>
<path d="" fill="#FFFFFF" transform="translate(0,0)"/>
<path d="" fill="#FFFFFF" transform="translate(0,0)"/>
<path d="" fill="#FFFFFF" transform="translate(0,0)"/>
<path d="" fill="#FFFFFF" transform="translate(0,0)"/>
<path d="" fill="#FFFFFF" transform="translate(0,0)"/>
<path d="" fill="#FFFFFF" transform="translate(0,0)"/>
<path d="" fill="#FFFFFF" transform="translate(0,0)"/>
<path d="" fill="#FFFFFF" transform="translate(0,0)"/>
<path d="" fill="#FFFFFF" transform="translate(0,0)"/>
<path d="" fill="#FFFFFF" transform="translate(0,0)"/>
<path d="" fill="#FFFFFF" transform="translate(0,0)"/>
<path d="" fill="#FFFFFF" transform="translate(0,0)"/>
<path d="" fill="#FFFFFF" transform="translate(0,0)"/>
<path d="" fill="#FFFFFF" transform="translate(0,0)"/>
<path d="" fill="#FFFFFF" transform="translate(0,0)"/>
<path d="" fill="#FFFFFF" transform="translate(0,0)"/>
<path d="" fill="#FFFFFF" transform="translate(0,0)"/>
<path d="" fill="#FFFFFF" transform="translate(0,0)"/>
<path d="" fill="#FFFFFF" transform="translate(0,0)"/>
<path d="" fill="#FFFFFF" transform="translate(0,0)"/>
<path d="" fill="#FFFFFF" transform="translate(0,0)"/>
<path d="" fill="#FFFFFF" transform="translate(0,0)"/>
<path d="" fill="#FFFFFF" transform="translate(0,0)"/>
<path d="" fill="#FFFFFF" transform="translate(0,0)"/>
<path d="" fill="#FFFFFF" transform="translate(0,0)"/>
<path d="" fill="#FFFFFF" transform="translate(0,0)"/>
<path d="" fill="#FFFFFF" transform="translate(0,0)"/>
<path d="" fill="#FFFFFF" transform="translate(0,0)"/>
<path d="" fill="#FFFFFF" transform="translate(0,0)"/>
<path d="" fill="#FFFFFF" transform="translate(0,0)"/>
<path d="" fill="#FFFFFF" transform="translate(0,0)"/>
<path d="" fill="#FFFFFF" transform="translate(0,0)"/>
<path d="" fill="#FFFFFF" transform="translate(0,0)"/>
</svg>
